# xmcd
#
# Track frame offsets:
#	183
#	17433
#	36745
#	46300
#
# Disc length: 951 seconds
#
# Revision: 0
# Processed by: cddbd v1.4b42PL1 Copyright (c) Steve Scherf et al.
# Submitted via: EasyCDDAExtractor 4.5.0.2
#
DISCID=2c03b504
DTITLE=Sheryl Crow - What Can I Do For You (single)
DYEAR=1900
DGENRE=
TTITLE0=What Can I Do For You (Radio Edit)
TTITLE1=What Can I Do For You (LP Version)
TTITLE2=Volvo Cowgirl 99
TTITLE3=I Shall Believe
EXTD=
EXTT0=
EXTT1=
EXTT2=
EXTT3=
PLAYORDER=
